<?xml version="1.0" standalone="no"?>
<!DOCTYPE svg PUBLIC "-//W3C//DTD SVG 20010904//EN"
 "http://www.w3.org/TR/2001/REC-SVG-20010904/DTD/svg10.dtd">
<svg version="1.0" xmlns="http://www.w3.org/2000/svg"
 width="700.000000pt" height="700.000000pt" viewBox="0 0 700.000000 700.000000"
 preserveAspectRatio="xMidYMid meet">
<metadata>
Created by potrace 1.11, written by Peter Selinger 2001-2013
</metadata>
<g transform="translate(0.000000,700.000000) scale(0.100000,-0.100000)"
fill="#000000" stroke="none">
<path d="M6017 6672 l-327 -327 0 -115 0 -115 213 -213 212 -212 115 0 115 0
328 328 327 327 0 110 0 110 -218 218 -217 217 -110 0 -110 0 -328 -328z"/>
<path d="M2742 3928 c-286 -28 -545 -214 -682 -488 -74 -148 -168 -250 -287
-312 -94 -50 -128 -58 -286 -68 -169 -12 -243 -23 -376 -61 -486 -138 -864
-500 -1029 -984 -73 -216 -97 -472 -61 -650 94 -456 542 -989 1036 -1234 216
-107 389 -141 603 -121 200 19 351 59 525 140 325 150 611 447 754 782 81 189
111 343 130 653 15 246 65 376 186 476 100 83 200 113 425 124 80 4 149 13
170 22 78 32 130 111 130 198 0 104 -75 194 -179 216 -73 15 -106 39 -127 94
-23 60 -14 174 20 274 29 83 31 115 15 209 l-11 64 -317 -316 -316 -316 -218
218 -217 217 355 355 356 355 -23 19 c-42 35 -184 95 -269 115 -105 24 -200
30 -307 19z m-287 -1097 c59 -27 358 -334 375 -385 42 -130 -63 -265 -197
-252 -70 6 -109 35 -275 203 -183 185 -205 235 -152 341 49 99 153 138 249 93z
m-872 -877 c45 -23 334 -311 360 -359 25 -48 27 -127 4 -170 -52 -100 -176
-137 -270 -81 -68 39 -342 324 -357 370 -18 54 -8 128 23 174 47 73 163 104
240 66z m113 -1095 c49 -24 69 -103 37 -149 -27 -39 -45 -49 -90 -50 -83 0
-134 78 -98 153 28 59 86 77 151 46z m456 -16 c33 -32 42 -66 28 -109 -16 -47
-54 -74 -104 -74 -95 1 -143 112 -76 179 47 47 104 48 152 4z"/>
</g>
</svg>
