<?xml version="1.0" standalone="no"?>
<!DOCTYPE svg PUBLIC "-//W3C//DTD SVG 20010904//EN"
 "http://www.w3.org/TR/2001/REC-SVG-20010904/DTD/svg10.dtd">
<svg version="1.0" xmlns="http://www.w3.org/2000/svg"
 width="1001.000000pt" height="1001.000000pt" viewBox="0 0 1001.000000 1001.000000"
 preserveAspectRatio="xMidYMid meet">
<metadata>
Created by potrace 1.14, written by Peter Selinger 2001-2017
</metadata>
<g transform="translate(0.000000,1001.000000) scale(0.100000,-0.100000)"
fill="#000000" stroke="none">
<path d="M9043 9996 c-24 -8 -64 -28 -90 -44 -27 -17 -229 -212 -449 -434
-458 -460 -454 -455 -462 -608 -3 -69 0 -97 18 -149 l21 -65 -1712 -1712
-1712 -1712 -83 55 c-418 272 -970 272 -1386 0 -215 -140 -355 -302 -481 -560
-153 -310 -394 -480 -729 -517 -54 -5 -166 -28 -250 -49 -710 -181 -1170 -543
-1460 -1149 -103 -213 -171 -453 -199 -696 -15 -127 -6 -432 15 -551 81 -447
289 -805 699 -1202 308 -298 658 -497 997 -570 104 -22 472 -25 615 -5 530 76
941 267 1261 586 55 56 127 137 160 181 32 44 69 90 81 102 53 53 185 363 234
548 43 166 59 297 69 555 11 301 33 417 105 560 72 144 176 249 309 313 137
67 243 87 506 96 184 7 198 9 246 34 187 96 236 343 97 497 -52 57 -120 97
-185 105 -76 11 -87 15 -123 47 -65 56 -80 98 -80 223 1 114 19 203 67 323 18
47 20 66 14 150 -3 53 -14 131 -24 174 l-19 76 1767 1767 1767 1767 66 -22
c54 -18 82 -22 150 -18 151 8 145 3 618 477 488 488 474 469 474 641 0 165 -5
172 -314 481 -300 300 -315 311 -466 316 -57 2 -105 -2 -132 -11z m-5747
-6082 c42 -15 81 -49 288 -253 271 -269 286 -289 286 -406 -1 -162 -114 -275
-275 -275 -115 0 -137 16 -406 287 -205 206 -238 245 -253 287 -51 156 20 310
169 364 45 16 135 14 191 -4z m-1280 -1280 c42 -15 81 -49 288 -253 271 -269
286 -289 286 -407 0 -117 -60 -209 -169 -257 -64 -28 -181 -21 -242 15 -24 15
-148 131 -275 260 -252 254 -264 271 -264 383 0 111 52 194 152 244 72 36 145
41 224 15z m174 -1606 c117 -59 114 -227 -6 -279 -80 -36 -169 -3 -204 74 -25
55 -25 83 3 137 24 48 88 90 137 90 14 0 46 -10 70 -22z m640 0 c117 -59 114
-227 -6 -279 -80 -36 -169 -3 -204 74 -25 55 -25 83 3 137 24 48 88 90 137 90
14 0 46 -10 70 -22z"/>
</g>
</svg>
