<svg width="641" height="640" viewBox="0 0 641 640" fill="none" xmlns="http://www.w3.org/2000/svg">
<path d="M334.491 409.6C318.425 404.316 325.828 380.436 329.126 371.794C329.914 370.053 330.406 368.824 330.406 368.65C330.406 323.4 293.726 286.72 248.486 286.72C213.915 286.72 184.404 308.163 172.382 338.463C154.308 370.319 125.606 368.65 125.606 368.65C69.0938 379.239 36.9471 404.457 17.3998 445.292C-1.9484 485.711 -0.970902 534.724 24.4376 571.636C50.3336 609.256 90.6086 640 130.726 640C209.891 640 268.966 591.176 268.966 512C268.966 511.304 268.873 510.628 268.863 509.932L268.966 509.962C268.966 442.675 324.907 451.4 334.491 450.56C345.807 450.56 354.971 441.395 354.971 430.09C354.971 418.775 345.817 409.6 334.491 409.6Z" fill="#2E2E2E"/>
<path d="M268.843 509.921L268.966 509.962C268.966 442.675 324.907 451.4 334.491 450.56C345.807 450.56 354.971 441.395 354.971 430.09C354.971 418.775 345.807 409.6 334.491 409.6C318.425 404.316 325.828 380.457 329.115 371.804C329.924 370.022 330.406 368.835 330.406 368.65C330.406 356.434 327.651 344.883 322.869 334.469C286.036 367.616 125.606 512 125.606 512C125.606 512 201.126 592.384 249.725 583.537C261.89 562.463 268.966 538.081 268.966 512C268.966 511.304 268.853 510.628 268.843 509.921Z" fill="#3F9EA3"/>
<path d="M242.987 419.553L217.479 394.035C210.434 386.99 199.016 386.99 191.971 394.035C184.926 401.08 184.926 412.508 191.971 419.553L217.479 445.051C224.524 452.096 235.952 452.096 242.987 445.051C250.032 438.006 250.032 426.588 242.987 419.553Z" fill="white"/>
<path d="M161.067 501.473L135.559 475.965C128.514 468.92 117.096 468.92 110.061 475.965C103.016 483.011 103.016 494.428 110.061 501.473L135.559 526.971C142.604 534.016 154.032 534.016 161.067 526.971C168.112 519.926 168.112 508.508 161.067 501.473Z" fill="white"/>
<path d="M135.846 573.42C130.183 573.42 125.606 578.007 125.606 583.67C125.606 589.322 130.183 593.9 135.846 593.9C141.498 593.9 146.086 589.322 146.086 583.67C146.086 578.007 141.498 573.42 135.846 573.42ZM176.806 573.42C171.143 573.42 166.566 578.007 166.566 583.67C166.566 589.322 171.143 593.9 176.806 593.9C182.458 593.9 187.046 589.322 187.046 583.67C187.046 578.007 182.458 573.42 176.806 573.42Z" fill="white"/>
<path d="M527.149 74.1829L563.353 110.387L266.481 407.259L230.277 371.055L527.149 74.1829Z" fill="#D1B497"/>
<path d="M603.886 7.24387C599.25 2.60582 592.961 0 586.404 0C579.848 0 573.561 2.60412 568.926 7.23949L521.966 54.1992C517.33 58.8354 514.726 65.1234 514.726 71.68C514.726 78.2366 517.33 84.5246 521.966 89.1608L548.446 115.647C553.081 120.285 559.37 122.89 565.927 122.89C572.483 122.89 578.77 120.286 583.405 115.65L630.367 68.6797C635.002 64.0441 637.606 57.7575 637.606 51.2024C637.606 44.6445 635 38.3553 630.361 33.7193L603.886 7.24387Z" fill="#2E2E2E"/>
</svg>
