<svg viewBox="0 0 834 62" fill="none" xmlns="http://www.w3.org/2000/svg">
  <g fill="currentColor">
    <path d="M89.698 40.506H70.864V41.366H86.086V43.086H79.378V43.516H72.67V44.806H68.284V46.096H66.392V47.386H57.362V49.106H70.864V50.826H63.984V51.686H70.004V52.546H73.616V53.836H74.906V55.126H76.11V55.986H76.196V57.706H78.002V58.136H77.056V58.566H74.906V58.996H69.918L69.66 59.856H66.994C66.7647 60.2573 66.5067 60.544 66.22 60.716H69.402C69.1153 60.9453 68.714 61.06 68.198 61.06H52.632C52.116 61.06 51.7147 60.9453 51.428 60.716H48.16C47.8733 60.544 47.6153 60.2573 47.386 59.856H49.966C49.794 59.5693 49.708 59.2827 49.708 58.996H54.696V58.566H56.846V58.136H57.792V57.706H55.986V55.986H55.9V55.126H54.696V53.836H53.406V52.546H49.794V51.686H43.774V50.826H50.654V49.106H20.21V50.826H32.508V51.686H30.702V53.836H31.046V55.126H29.412V55.986H28.81V57.706H29.068V58.136H35.432V58.566H30.1V58.996H33.196C33.196 59.2827 33.11 59.5693 32.938 59.856H28.208C28.036 60.2573 27.7493 60.544 27.348 60.716H26.832C26.5453 60.9453 26.1153 61.06 25.542 61.06H9.976C9.46 61.06 9.05867 60.9453 8.772 60.716H9.374C9.202 60.6013 9.03 60.4867 8.858 60.372C8.74333 60.2 8.62867 60.028 8.514 59.856H13.33C13.158 59.5693 13.072 59.2827 13.072 58.996H9.89V58.566H15.222V58.136H8.858V57.706H8.6V55.986H9.202V55.126H10.836V53.836H10.492V51.686H12.298V50.826H0V49.106H18.576V47.386H1.634V46.096H1.204V44.806H8.256V43.516H10.75V43.086H5.246V41.366H17.286V40.506H25.714L25.456 40.076H10.148V39.646H12.986V39.216H10.836V37.496H10.922V36.636H12.9V35.346H12.47V33.626H10.148V33.196H2.408V32.336H9.116V31.906H8.858V31.046H12.642V30.186H14.706V28.896H1.118V27.176H11.954V26.316H2.322V25.026H12.298V24.166H11.094V23.306H7.826V22.876H9.46V21.586H19.35V20.296H17.888V19.436H9.718V19.006H9.288V17.716H13.33V15.996H4.386V15.136H7.482V14.706H8.342V13.846H6.364V12.556H14.104V11.266H10.148V9.546H16.684V9.116H14.62V7.396H22.274V6.106H4.3V4.816H23.392V3.526H14.964V2.666H8.514C8.57133 2.37934 8.65733 2.15 8.772 1.978C8.944 1.74867 9.116 1.548 9.288 1.376H9.718C10.062 1.032 10.5493 0.859999 11.18 0.859999H24.768C25.5707 0.859999 26.23 1.032 26.746 1.376H26.316C26.66 1.548 26.9467 1.74867 27.176 1.978C27.4053 2.20733 27.5773 2.43667 27.692 2.666H34.228L34.572 3.182L34.744 3.526H43.258L44.032 4.816H24.94L25.714 6.106H43.602L44.376 7.396H36.808L37.84 9.116H39.904L40.162 9.546H33.626L34.658 11.266H38.528L39.302 12.556H31.648L32.422 13.846H34.4L34.916 14.706H34.056L34.314 15.136H31.218L31.734 15.996H40.678L41.71 17.716H37.668L38.442 19.006H38.872L39.13 19.436H45.494L45.752 19.006H43.43L44.204 17.716H47.042L48.074 15.996H46.526L47.042 15.136H40.076L40.334 14.706H49.02L49.536 13.846H48.848L49.622 12.556H54.782L55.556 11.266H55.814L56.846 9.546H52.89L53.148 9.116H62.178L63.21 7.396H62.694L63.468 6.106H50.224L50.998 4.816H63.726L64.5 3.526H55.126L55.298 3.182C55.4127 2.95267 55.5273 2.78067 55.642 2.666H55.814C55.986 2.43667 56.1867 2.20733 56.416 1.978C56.6453 1.74867 56.9033 1.548 57.19 1.376H57.018C57.534 1.032 58.1933 0.859999 58.996 0.859999H72.584C73.1573 0.859999 73.6447 1.032 74.046 1.376H74.304C74.476 1.548 74.6193 1.74867 74.734 1.978C74.906 2.15 75.0207 2.37934 75.078 2.666H74.906V3.526H84.366V4.816H71.638V6.106H84.882V7.396H85.398V9.116H76.368V9.546H80.324V11.266H80.066V12.556H74.906V13.846H75.594V14.706H66.908V15.136H73.874V15.996H75.422V17.716H72.67V19.006H74.906V19.436H78.948V20.296H70.09V21.586H76.454V22.876H74.906V23.306H75.25V24.166H76.454V25.026H66.478V26.316H76.11V27.176H65.274V28.896H78.862V30.186H76.798V31.046H73.014V31.906H73.272V32.336H66.564V33.196H74.304V33.626H76.626V35.346H74.648V36.636H73.186V37.496H74.906V39.216H75.68V39.646H79.378V40.076H89.698V40.506ZM49.45 19.436H47.3L47.816 20.296H48.934L49.45 19.436ZM39.302 22.876L39.56 23.306H42.914L43.172 23.822L43.516 23.306H43.172L43.43 22.876H44.892L45.666 21.586H40.248L41.022 22.876H39.302ZM52.03 36.636H54.438V35.346H52.804L52.03 36.636ZM31.046 39.216H33.196V39.646H30.358V40.076H36.206L35.948 39.646H34.572L34.228 39.216H33.454L32.422 37.496H32.594L32.078 36.636H31.132V37.496H31.046V39.216ZM69.488 40.506V40.076H59.168V39.646H55.47V39.216H54.696V37.496H53.32L52.202 39.216H53.062L52.804 39.646H54.18L53.922 40.076H46.87V40.506H37.496V41.366H25.456V43.086H30.96V43.516H28.466V44.806H21.414V46.096H21.844V47.386H46.182V46.096H48.074V44.806H40.85C40.678 45.0353 40.506 45.2647 40.334 45.494C40.162 45.7233 39.9327 45.924 39.646 46.096H39.388C38.872 46.44 38.2987 46.612 37.668 46.612H31.648C30.96 46.612 30.358 46.44 29.842 46.096H30.1C29.8707 45.924 29.6413 45.7233 29.412 45.494C29.24 45.2647 29.068 45.0353 28.896 44.806H37.754L37.496 44.462L36.894 43.516H33.798L33.54 43.086H39.56L38.442 41.366H48.504L47.988 40.506H69.488ZM65.876 43.086V41.366H54.61L53.578 43.086H47.644L47.386 43.516H50.482L49.88 44.462L49.622 44.806H52.46V43.516H59.168V43.086H65.876Z"/>
    <path d="M138.756 46.096H145.55V47.386H132.478V49.106H140.906V50.826H133.51V52.546H134.456V53.836H133.854V54.696H132.048V55.556H131.962V56.416H133.768V58.136H136.262V58.738C136.262 58.8527 136.234 58.9387 136.176 58.996H120.868C120.811 59.1107 120.782 59.254 120.782 59.426H126.716C126.544 59.9993 126.229 60.4293 125.77 60.716H124.136C123.85 60.9453 123.448 61.06 122.932 61.06H78.1263C77.6676 61.06 77.2376 60.9453 76.8363 60.716H78.4703C78.069 60.4293 77.7536 59.9993 77.5243 59.426H71.5043C71.447 59.3113 71.4183 59.168 71.4183 58.996H86.8123V58.136H84.3183V56.416H82.5123V55.556H82.5983V54.696H84.4043V53.836H85.0063V52.546H84.0603V50.826H91.4563V49.106H83.0283V47.386H96.1003V46.096H89.3063V45.236H91.2843V44.376H92.1443V43.516H82.5983V42.656H80.3623V41.366H88.3603V40.936H81.9963V40.076H83.8883V39.216H85.2643V37.926H85.0923V36.206H84.2323V34.486H82.9423V33.626H83.9743V31.906H83.0283V31.046H84.4043V29.756H84.7483V28.466H86.2963V28.036H84.8343V26.316H83.5443V25.026H83.8883V23.736H84.0603V22.016H85.3503V20.296H83.4583V18.576H83.7163V16.856H86.1243V15.566H84.8343V14.276H84.1463V13.846H87.7583V12.556H94.1223V11.696H91.5423V10.836H83.2003V10.406H84.1463V9.116H84.2323V7.826H84.4903V6.106H84.4043V3.956H84.2323V3.182C84.2323 2.95267 84.261 2.78067 84.3183 2.666H83.4583C83.6876 1.462 84.433 0.859999 85.6943 0.859999H129.812C131.131 0.859999 131.876 1.462 132.048 2.666H132.908C132.966 2.78067 132.994 2.95267 132.994 3.182V3.956H133.166V6.106H133.252V7.826H132.994V9.116H132.908V10.406H131.962V10.836H140.304V11.696H142.884V12.556H136.52V13.846H132.908V14.276H133.596V15.566H134.886C134.772 16.1393 134.571 16.5693 134.284 16.856H131.876C131.475 17.372 130.902 17.63 130.156 17.63H104.356V18.576H104.098V20.296H105.99V22.016H104.7V23.048H128.608C129.239 23.048 129.784 23.2773 130.242 23.736H130.07C130.357 24.0227 130.558 24.4527 130.672 25.026H130.414V26.316H131.704V28.036H133.166V28.466H131.618V29.756H131.274V31.046H129.898V31.906H130.844V33.626H129.812V34.486H131.102V36.206H131.962V36.55C131.962 37.1807 131.819 37.6393 131.532 37.926H131.704C131.246 38.5567 130.615 38.872 129.812 38.872H105.904V39.216H104.528V40.076H102.636V40.936H109V41.366H101.002V42.656H103.238V43.516H112.784V44.29H139.272C139.559 44.29 139.788 44.3187 139.96 44.376H139.014C139.588 44.548 140.018 44.8347 140.304 45.236H138.326C138.556 45.58 138.699 45.8667 138.756 46.096Z"/>
    <path d="M151.03 3.096C151.087 2.924 151.116 2.78067 151.116 2.666C151.173 2.494 151.231 2.35067 151.288 2.236H141.828C141.943 2.064 142.057 1.92067 142.172 1.806C142.287 1.634 142.401 1.49067 142.516 1.376H152.492C152.951 1.032 153.438 0.859999 153.954 0.859999H171.154C171.785 0.859999 172.272 1.032 172.616 1.376H162.64C162.755 1.49067 162.869 1.634 162.984 1.806C163.156 1.92067 163.271 2.064 163.328 2.236H172.702C172.817 2.58 172.874 2.86667 172.874 3.096H177.69C177.747 3.096 177.776 3.12467 177.776 3.182V3.956H166.166V5.676H170.982V6.966H170.466V8.686H167.37V10.406H174.336V10.836H174.852V12.556H175.196V14.276H174.594V15.996H174.164V18.146H175.626V19.866H173.992V21.586H174.336V22.016H180.442V23.736H183.624V24.596H170.38V25.456H174.766V27.176H171.154V28.896H174.25V29.756H174.852V31.046H186.376V31.906H194.374V33.626H172.53V31.906H164.532V31.046H153.008V29.756H152.406V28.896H149.31V27.176H152.922V25.456H148.536V24.596H161.78V23.736H158.598V22.016H152.492V21.586H152.148V19.866H153.782V18.146H152.32V15.996H152.75V14.276H153.352V12.556H153.008V10.836H152.492V10.406H145.526V8.686H148.622V6.966H149.138V5.676H144.322V3.956H155.932V3.096H151.03ZM208.22 49.536H184.742V49.966H186.462V51.256H198.674V51.686H194.89V53.406H200.91V54.696H201.77V55.126H201.168V55.556H200.91V57.276H201.082V58.566H200.738V58.996H200.308C200.251 59.1107 200.222 59.254 200.222 59.426H201.168C200.996 59.9993 200.681 60.4293 200.222 60.716H199.276C198.989 60.9453 198.588 61.06 198.072 61.06H154.728C154.212 61.06 153.811 60.9453 153.524 60.716H154.384C153.868 60.4293 153.524 59.9993 153.352 59.426H152.406C152.406 59.3113 152.377 59.2253 152.32 59.168C152.32 59.1107 152.32 59.0533 152.32 58.996H152.75V58.566H153.094V57.276H152.922V55.556H153.18V55.126H153.782V54.696H152.922V53.406H146.902V51.686H150.686V51.256H138.474V49.966H136.754V49.536H160.232V48.246H150.686V46.956H159.974V46.526H139.678V45.236H142.602V44.806H153.782V44.376H149.826V43.086H156.534V41.366H149.74V40.506H155.33V40.076H152.75V38.786H155.244V37.926H152.062V37.066H159.544V35.776H161.694V34.916H149.912V33.626H171.756V34.916H183.538V35.776H181.388V37.066H173.906V37.926H177.088V38.786H174.594V40.076H177.174V40.506H171.584V41.366H178.378V43.086H171.67V43.43H195.492C196.295 43.43 196.925 43.7453 197.384 44.376H201.34L201.598 44.806H190.418L190.59 45.236H187.58C187.637 45.3507 187.666 45.5227 187.666 45.752V46.526H207.962V46.956H198.674V48.246H208.22V49.536Z"/>
    <path d="M204.864 3.096C204.921 2.924 204.95 2.78067 204.95 2.666C205.007 2.494 205.065 2.35067 205.122 2.236H195.662C195.777 2.064 195.891 1.92067 196.006 1.806C196.121 1.634 196.235 1.49067 196.35 1.376H206.326C206.785 1.032 207.272 0.859999 207.788 0.859999H224.988C225.619 0.859999 226.106 1.032 226.45 1.376H216.474C216.589 1.49067 216.703 1.634 216.818 1.806C216.99 1.92067 217.105 2.064 217.162 2.236H226.536C226.651 2.58 226.708 2.86667 226.708 3.096H231.524C231.581 3.096 231.61 3.12467 231.61 3.182V3.956H220V5.676H224.816V6.966H224.3V8.686H221.204V10.406H228.17V10.836H228.686V12.556H229.03V14.276H228.428V15.996H227.998V18.146H229.46V19.866H227.826V21.586H228.17V22.016H234.276V23.736H237.458V24.596H224.214V25.456H228.6V27.176H224.988V28.896H228.084V29.756H228.686V31.046H240.21V31.906H248.208V33.626H226.364V31.906H218.366V31.046H206.842V29.756H206.24V28.896H203.144V27.176H206.756V25.456H202.37V24.596H215.614V23.736H212.432V22.016H206.326V21.586H205.982V19.866H207.616V18.146H206.154V15.996H206.584V14.276H207.186V12.556H206.842V10.836H206.326V10.406H199.36V8.686H202.456V6.966H202.972V5.676H198.156V3.956H209.766V3.096H204.864ZM262.054 49.536H238.576V49.966H240.296V51.256H252.508V51.686H248.724V53.406H254.744V54.696H255.604V55.126H255.002V55.556H254.744V57.276H254.916V58.566H254.572V58.996H254.142C254.085 59.1107 254.056 59.254 254.056 59.426H255.002C254.83 59.9993 254.515 60.4293 254.056 60.716H253.11C252.823 60.9453 252.422 61.06 251.906 61.06H208.562C208.046 61.06 207.645 60.9453 207.358 60.716H208.218C207.702 60.4293 207.358 59.9993 207.186 59.426H206.24C206.24 59.3113 206.211 59.2253 206.154 59.168C206.154 59.1107 206.154 59.0533 206.154 58.996H206.584V58.566H206.928V57.276H206.756V55.556H207.014V55.126H207.616V54.696H206.756V53.406H200.736V51.686H204.52V51.256H192.308V49.966H190.588V49.536H214.066V48.246H204.52V46.956H213.808V46.526H193.512V45.236H196.436V44.806H207.616V44.376H203.66V43.086H210.368V41.366H203.574V40.506H209.164V40.076H206.584V38.786H209.078V37.926H205.896V37.066H213.378V35.776H215.528V34.916H203.746V33.626H225.59V34.916H237.372V35.776H235.222V37.066H227.74V37.926H230.922V38.786H228.428V40.076H231.008V40.506H225.418V41.366H232.212V43.086H225.504V43.43H249.326C250.129 43.43 250.759 43.7453 251.218 44.376H255.174L255.432 44.806H244.252L244.424 45.236H241.414C241.471 45.3507 241.5 45.5227 241.5 45.752V46.526H261.796V46.956H252.508V48.246H262.054V49.536Z"/>
    <path d="M321.65 56.416L322.252 58.136H320.79L320.962 58.566C320.962 58.6233 320.962 58.7093 320.962 58.824C321.019 58.8813 321.048 58.9387 321.048 58.996H320.532V59.168C320.532 59.856 320.274 60.372 319.758 60.716H319.844C319.557 60.9453 319.185 61.06 318.726 61.06H302.816C302.415 61.06 302.071 61.0313 301.784 60.974C301.555 60.8593 301.297 60.7733 301.01 60.716C300.551 60.4867 300.207 60.2287 299.978 59.942C299.749 59.598 299.577 59.2827 299.462 58.996H299.892V58.91L299.72 58.566L299.548 58.136H301.01L300.408 56.416H298.774L298.516 55.556H302.042L301.44 53.836H300.408L300.15 53.234H281.66L281.488 53.836H280.456L279.854 55.556H278.908L278.564 56.416H278.048L277.446 58.136H277.532L277.36 58.566L277.274 58.91L277.188 58.996H276.758C276.643 59.2827 276.471 59.598 276.242 59.942C276.013 60.2287 275.669 60.4867 275.21 60.716H277.79C277.561 60.7733 277.303 60.8593 277.016 60.974C276.729 61.0313 276.385 61.06 275.984 61.06H260.074C259.615 61.06 259.271 60.9453 259.042 60.716H256.462C255.889 60.3147 255.602 59.7987 255.602 59.168V58.996H256.118C256.118 58.824 256.147 58.6807 256.204 58.566L256.29 58.136H256.204L256.806 56.416H257.322L257.666 55.556H258.612L259.214 53.836H260.16L260.762 52.116H257.408L257.752 51.256H257.494L257.924 49.966H258.784L258.956 49.536H257.064L257.666 47.816H260.59L260.848 46.956H258.182L258.354 46.526H258.784L259.386 44.806H259.128L259.558 43.516H259.902L260.504 41.796H261.622L262.052 40.506L262.224 40.076H266.524L266.696 39.646H266.438L266.868 38.356H262.052L262.654 36.636H264.202L264.374 36.206H263.428L263.6 35.776H266.352L266.954 34.056H263.6L263.944 33.196H265.234L265.836 31.476H265.062L265.492 30.186H266.438L267.04 28.466H266.782L266.954 28.036H264.976L265.32 27.176H267.212L267.642 25.886H266.782L266.868 25.456H268.416L269.018 23.736H267.126L267.556 22.446H266.61L266.868 21.586H260.934L261.192 20.726H260.074L260.676 19.006H259.558L260.074 17.716H263.428L264.03 15.996H272.63L273.06 14.706H268.932L269.276 13.846H272.458L273.06 12.126H270.222L270.652 10.836H272.458L273.06 9.116H272.802L273.404 7.396H270.996L271.082 6.966H279.338L279.94 5.246H279.682L279.854 4.816H276.844L277.188 3.698L277.446 3.096H278.306L278.822 2.236H278.564C278.851 1.83467 279.252 1.51933 279.768 1.29C280.284 1.00333 280.915 0.859999 281.66 0.859999H300.322C301.067 0.859999 301.698 1.00333 302.214 1.29C302.73 1.51933 303.131 1.83467 303.418 2.236H303.762L304.278 3.096H303.418C303.533 3.32533 303.59 3.526 303.59 3.698L304.02 4.816H307.03L307.116 5.246H307.374L307.976 6.966H299.806L299.978 7.396H302.386L302.988 9.116H303.246L303.848 10.836H302.042L302.472 12.126H305.31L305.912 13.846H302.73L303.074 14.706H307.202L307.632 15.996H299.032L299.634 17.716H296.28L296.71 19.006H297.742L298.344 20.726H294.99L295.334 21.586H309.008L309.266 22.446H308.578L309.008 23.736H307.288L307.89 25.456H305.826L305.912 25.886H309.008L309.438 27.176H309.524L309.868 28.036H307.03L307.202 28.466H309.954L310.556 30.186H311.502L311.932 31.476H311.674L312.276 33.196H313.652L313.996 34.056H311.502L312.104 35.776H313.824L313.91 36.206H313.48L313.652 36.636H312.104L312.62 38.356H317.522L317.952 39.646H318.21L318.382 40.076H313.996L314.168 40.506H314.254L314.684 41.796H313.566L314.168 43.516H313.738L314.254 44.806H314.512L315.114 46.526H314.684L314.856 46.956H317.522L317.866 47.816H314.856L315.458 49.536H317.35L317.522 49.966H316.662L317.178 51.256H317.35L317.694 52.116H321.048L321.65 53.836H322.682L323.284 55.556H319.758L320.016 56.416H321.65ZM285.702 22.446H286.734L286.304 23.736H289.83L289.4 22.446H290.088L289.83 21.586H285.96L285.702 22.446ZM288.54 25.456L288.11 23.994L287.68 25.456H288.54ZM283.38 35.776L283.208 36.206H284.154L284.068 36.464H293.786L293.7 36.206H294.13L294.044 35.776H292.324L291.808 34.056H294.302L294.044 33.196H292.582L292.066 31.476H292.324L291.98 30.186H291.034L290.518 28.466H287.766L287.594 28.036H290.432L290.174 27.176H290.088L289.658 25.886H286.906L286.562 27.176H284.67L284.412 28.036H286.304L286.218 28.466H286.476L285.96 30.186H285.014L284.584 31.476H285.358L284.842 33.196H283.552L283.294 34.056H286.648L286.132 35.776H283.38Z"/>
    <path d="M404.286 40.506H385.452V41.366H400.674V43.086H393.966V43.516H387.258V44.806H382.872V46.096H380.98V47.386H371.95V49.106H385.452V50.826H378.572V51.686H384.592V52.546H388.204V53.836H389.494V55.126H390.698V55.986H390.784V57.706H392.59V58.136H391.644V58.566H389.494V58.996H384.506L384.248 59.856H381.582C381.353 60.2573 381.095 60.544 380.808 60.716H383.99C383.703 60.9453 383.302 61.06 382.786 61.06H367.22C366.704 61.06 366.303 60.9453 366.016 60.716H362.748C362.461 60.544 362.203 60.2573 361.974 59.856H364.554C364.382 59.5693 364.296 59.2827 364.296 58.996H369.284V58.566H371.434V58.136H372.38V57.706H370.574V55.986H370.488V55.126H369.284V53.836H367.994V52.546H364.382V51.686H358.362V50.826H365.242V49.106H334.798V50.826H347.096V51.686H345.29V53.836H345.634V55.126H344V55.986H343.398V57.706H343.656V58.136H350.02V58.566H344.688V58.996H347.784C347.784 59.2827 347.698 59.5693 347.526 59.856H342.796C342.624 60.2573 342.337 60.544 341.936 60.716H341.42C341.133 60.9453 340.703 61.06 340.13 61.06H324.564C324.048 61.06 323.647 60.9453 323.36 60.716H323.962C323.79 60.6013 323.618 60.4867 323.446 60.372C323.331 60.2 323.217 60.028 323.102 59.856H327.918C327.746 59.5693 327.66 59.2827 327.66 58.996H324.478V58.566H329.81V58.136H323.446V57.706H323.188V55.986H323.79V55.126H325.424V53.836H325.08V51.686H326.886V50.826H314.588V49.106H333.164V47.386H316.222V46.096H315.792V44.806H322.844V43.516H325.338V43.086H319.834V41.366H331.874V40.506H340.302L340.044 40.076H324.736V39.646H327.574V39.216H325.424V37.496H325.51V36.636H327.488V35.346H327.058V33.626H324.736V33.196H316.996V32.336H323.704V31.906H323.446V31.046H327.23V30.186H329.294V28.896H315.706V27.176H326.542V26.316H316.91V25.026H326.886V24.166H325.682V23.306H322.414V22.876H324.048V21.586H333.938V20.296H332.476V19.436H324.306V19.006H323.876V17.716H327.918V15.996H318.974V15.136H322.07V14.706H322.93V13.846H320.952V12.556H328.692V11.266H324.736V9.546H331.272V9.116H329.208V7.396H336.862V6.106H318.888V4.816H337.98V3.526H329.552V2.666H323.102C323.159 2.37934 323.245 2.15 323.36 1.978C323.532 1.74867 323.704 1.548 323.876 1.376H324.306C324.65 1.032 325.137 0.859999 325.768 0.859999H339.356C340.159 0.859999 340.818 1.032 341.334 1.376H340.904C341.248 1.548 341.535 1.74867 341.764 1.978C341.993 2.20733 342.165 2.43667 342.28 2.666H348.816L349.16 3.182L349.332 3.526H357.846L358.62 4.816H339.528L340.302 6.106H358.19L358.964 7.396H351.396L352.428 9.116H354.492L354.75 9.546H348.214L349.246 11.266H353.116L353.89 12.556H346.236L347.01 13.846H348.988L349.504 14.706H348.644L348.902 15.136H345.806L346.322 15.996H355.266L356.298 17.716H352.256L353.03 19.006H353.46L353.718 19.436H360.082L360.34 19.006H358.018L358.792 17.716H361.63L362.662 15.996H361.114L361.63 15.136H354.664L354.922 14.706H363.608L364.124 13.846H363.436L364.21 12.556H369.37L370.144 11.266H370.402L371.434 9.546H367.478L367.736 9.116H376.766L377.798 7.396H377.282L378.056 6.106H364.812L365.586 4.816H378.314L379.088 3.526H369.714L369.886 3.182C370.001 2.95267 370.115 2.78067 370.23 2.666H370.402C370.574 2.43667 370.775 2.20733 371.004 1.978C371.233 1.74867 371.491 1.548 371.778 1.376H371.606C372.122 1.032 372.781 0.859999 373.584 0.859999H387.172C387.745 0.859999 388.233 1.032 388.634 1.376H388.892C389.064 1.548 389.207 1.74867 389.322 1.978C389.494 2.15 389.609 2.37934 389.666 2.666H389.494V3.526H398.954V4.816H386.226V6.106H399.47V7.396H399.986V9.116H390.956V9.546H394.912V11.266H394.654V12.556H389.494V13.846H390.182V14.706H381.496V15.136H388.462V15.996H390.01V17.716H387.258V19.006H389.494V19.436H393.536V20.296H384.678V21.586H391.042V22.876H389.494V23.306H389.838V24.166H391.042V25.026H381.066V26.316H390.698V27.176H379.862V28.896H393.45V30.186H391.386V31.046H387.602V31.906H387.86V32.336H381.152V33.196H388.892V33.626H391.214V35.346H389.236V36.636H387.774V37.496H389.494V39.216H390.268V39.646H393.966V40.076H404.286V40.506ZM364.038 19.436H361.888L362.404 20.296H363.522L364.038 19.436ZM353.89 22.876L354.148 23.306H357.502L357.76 23.822L358.104 23.306H357.76L358.018 22.876H359.48L360.254 21.586H354.836L355.61 22.876H353.89ZM366.618 36.636H369.026V35.346H367.392L366.618 36.636ZM345.634 39.216H347.784V39.646H344.946V40.076H350.794L350.536 39.646H349.16L348.816 39.216H348.042L347.01 37.496H347.182L346.666 36.636H345.72V37.496H345.634V39.216ZM384.076 40.506V40.076H373.756V39.646H370.058V39.216H369.284V37.496H367.908L366.79 39.216H367.65L367.392 39.646H368.768L368.51 40.076H361.458V40.506H352.084V41.366H340.044V43.086H345.548V43.516H343.054V44.806H336.002V46.096H336.432V47.386H360.77V46.096H362.662V44.806H355.438C355.266 45.0353 355.094 45.2647 354.922 45.494C354.75 45.7233 354.521 45.924 354.234 46.096H353.976C353.46 46.44 352.887 46.612 352.256 46.612H346.236C345.548 46.612 344.946 46.44 344.43 46.096H344.688C344.459 45.924 344.229 45.7233 344 45.494C343.828 45.2647 343.656 45.0353 343.484 44.806H352.342L352.084 44.462L351.482 43.516H348.386L348.128 43.086H354.148L353.03 41.366H363.092L362.576 40.506H384.076ZM380.464 43.086V41.366H369.198L368.166 43.086H362.232L361.974 43.516H365.07L364.468 44.462L364.21 44.806H367.048V43.516H373.756V43.086H380.464Z"/>
    <path d="M453.774 28.036H458.074V29.756H457.3V31.476H456.526V32.766H454.72V33.196H455.408V33.626H453V34.486H457.128V35.776H454.634V36.206H454.72C454.72 36.4927 454.692 36.7793 454.634 37.066C454.634 37.3527 454.634 37.6393 454.634 37.926H454.548C454.491 38.098 454.462 38.356 454.462 38.7V39.646H454.032C453.975 39.7607 453.946 39.904 453.946 40.076C453.946 40.248 453.946 40.3913 453.946 40.506H454.806L454.548 42.226H453.774C453.717 42.5127 453.66 42.7993 453.602 43.086C453.602 43.3727 453.545 43.6593 453.43 43.946H454.376C454.376 44.0033 454.348 44.0607 454.29 44.118C454.29 44.1753 454.29 44.2613 454.29 44.376H455.58C455.58 44.4333 455.552 44.4907 455.494 44.548C455.494 44.6053 455.494 44.6913 455.494 44.806H453.946C453.889 45.0353 453.832 45.2647 453.774 45.494C453.717 45.666 453.66 45.8667 453.602 46.096H453.344L452.828 47.386H451.882C451.825 47.6153 451.739 47.8447 451.624 48.074C451.51 48.246 451.395 48.4467 451.28 48.676H452.054C451.94 48.9627 451.796 49.2493 451.624 49.536H451.108C451.051 49.7653 450.936 49.9947 450.764 50.224C450.65 50.396 450.535 50.5967 450.42 50.826H453.086L452.484 51.686H449.302L448.356 52.976H449.302L448.098 54.266H449.044C448.987 54.3233 448.901 54.3807 448.786 54.438C448.729 54.4953 448.672 54.5813 448.614 54.696H449.646C449.474 54.8107 449.302 54.954 449.13 55.126C449.016 55.298 448.872 55.4413 448.7 55.556H447.066C446.894 55.6707 446.722 55.814 446.55 55.986C446.378 56.158 446.178 56.3013 445.948 56.416H446.55C446.378 56.5307 446.178 56.674 445.948 56.846C445.776 57.018 445.576 57.1613 445.346 57.276H445.174C444.658 57.5627 444.142 57.8493 443.626 58.136C443.11 58.4227 442.566 58.7093 441.992 58.996H441.734C441.562 59.0533 441.39 59.1107 441.218 59.168C441.046 59.2253 440.874 59.3113 440.702 59.426C440.301 59.598 439.9 59.77 439.498 59.942C439.154 60.0567 438.753 60.1713 438.294 60.286H438.208C436.316 60.8593 434.252 61.2893 432.016 61.576H432.102C431.185 61.6907 430.21 61.7767 429.178 61.834C428.204 61.8913 427.229 61.92 426.254 61.92C425.222 61.92 424.219 61.8913 423.244 61.834C422.27 61.7767 421.295 61.6907 420.32 61.576C418.142 61.3467 416.049 60.9167 414.042 60.286H414.128C413.727 60.1713 413.326 60.0567 412.924 59.942C412.523 59.77 412.122 59.598 411.72 59.426H411.634C411.462 59.3113 411.29 59.2253 411.118 59.168C410.946 59.1107 410.774 59.0533 410.602 58.996H410.86C410.287 58.7093 409.742 58.4227 409.226 58.136C408.71 57.8493 408.194 57.5627 407.678 57.276H407.85L406.56 56.416H406.044C405.815 56.3013 405.614 56.158 405.442 55.986C405.27 55.814 405.098 55.6707 404.926 55.556H406.56L405.528 54.696H404.496C404.439 54.5813 404.382 54.4953 404.324 54.438C404.267 54.3807 404.181 54.3233 404.066 54.266H403.206C402.977 54.0367 402.748 53.836 402.518 53.664C402.346 53.4347 402.174 53.2053 402.002 52.976H401.056L400.024 51.686H403.206L402.69 50.826H399.938C399.824 50.5967 399.709 50.396 399.594 50.224C399.48 49.9947 399.365 49.7653 399.25 49.536H399.766C399.594 49.2493 399.451 48.9627 399.336 48.676H398.562C398.448 48.4467 398.333 48.246 398.218 48.074C398.161 47.8447 398.075 47.6153 397.96 47.386H398.992L398.476 46.096H398.734C398.677 45.8667 398.62 45.666 398.562 45.494C398.505 45.2647 398.448 45.0353 398.39 44.806H399.336C399.279 44.6913 399.25 44.548 399.25 44.376H398.39C398.39 44.2613 398.362 44.1753 398.304 44.118C398.304 44.0607 398.304 44.0033 398.304 43.946H398.132C398.075 43.6593 398.018 43.3727 397.96 43.086C397.903 42.7993 397.846 42.5127 397.788 42.226H398.218C398.161 41.9393 398.104 41.6527 398.046 41.366C398.046 41.0793 398.046 40.7927 398.046 40.506H397.53L397.444 39.646H398.046V38.7C398.046 38.5853 398.018 38.4707 397.96 38.356C397.96 38.184 397.96 38.0407 397.96 37.926H396.842C396.785 37.6393 396.756 37.3527 396.756 37.066C396.756 36.7793 396.756 36.4927 396.756 36.206H397.358V35.776H397.1V34.486H398.82V33.626H395.81V33.196H397.444V32.766H397.358V31.476H396.928V29.756H397.444V28.036H396.842V26.746H393.66V25.026H397.358C397.416 24.9113 397.444 24.768 397.444 24.596H398.82V24.166H397.788V23.306H397.874L398.046 21.586H397.874C397.874 21.3567 397.874 21.156 397.874 20.984C397.932 20.7547 397.989 20.5253 398.046 20.296H397.788C397.788 20.0667 397.788 19.866 397.788 19.694C397.846 19.4647 397.903 19.2353 397.96 19.006H397.788C397.846 18.7767 397.903 18.576 397.96 18.404C398.018 18.1747 398.075 17.9453 398.132 17.716H395.724C395.724 17.6013 395.724 17.5153 395.724 17.458C395.782 17.4007 395.81 17.3433 395.81 17.286H398.39L398.648 16.426H398.476L398.648 15.996H399.938C399.996 15.8813 400.053 15.738 400.11 15.566C400.168 15.394 400.225 15.2507 400.282 15.136H399.422C399.594 14.62 399.824 14.0467 400.11 13.416H399.852C400.024 13.1293 400.168 12.8427 400.282 12.556C400.454 12.212 400.626 11.9253 400.798 11.696H401.056L401.314 11.266H399.938L400.196 10.836H401.572L401.83 10.406H401.658L402.69 9.116H402.088L403.206 7.826C403.493 7.53934 403.78 7.25267 404.066 6.966C404.41 6.622 404.754 6.33533 405.098 6.106H404.238L404.754 5.676H403.808C403.923 5.56133 404.009 5.47533 404.066 5.418C404.181 5.36067 404.296 5.30334 404.41 5.246H406.56C406.79 5.13133 407.019 4.988 407.248 4.816C407.478 4.644 407.707 4.50067 407.936 4.386H408.194C408.768 4.09933 409.341 3.81267 409.914 3.526C410.488 3.182 411.061 2.89534 411.634 2.666H411.892C413.039 2.15 414.3 1.72 415.676 1.376H416.106C417.769 0.917335 419.518 0.573335 421.352 0.344001C423.187 0.114667 425.079 0 427.028 0C431.099 0 434.711 0.458668 437.864 1.376H437.348C437.979 1.548 438.61 1.74867 439.24 1.978C439.871 2.15 440.473 2.37934 441.046 2.666H440.702C441.333 2.89534 441.906 3.182 442.422 3.526C442.996 3.81267 443.569 4.09933 444.142 4.386H443.798L445.088 5.246H442.938C443.053 5.30334 443.139 5.36067 443.196 5.418C443.311 5.47533 443.426 5.56133 443.54 5.676H444.486C444.601 5.73333 444.716 5.79067 444.83 5.848C444.945 5.90533 445.031 5.99133 445.088 6.106H445.948C446.292 6.33533 446.608 6.622 446.894 6.966C447.238 7.25267 447.554 7.53934 447.84 7.826H447.926C448.156 8.05534 448.356 8.28467 448.528 8.514C448.7 8.686 448.872 8.88667 449.044 9.116H449.646L450.678 10.406H450.85C451.022 10.578 451.137 10.7213 451.194 10.836H449.818L450.076 11.266H451.538L451.796 11.696H451.538C451.71 11.9253 451.854 12.212 451.968 12.556C452.14 12.8427 452.312 13.1293 452.484 13.416H452.742L453.516 15.136H454.376L454.634 15.996H453.344L453.516 16.426H453.688L453.946 17.286H453.688C453.688 17.3433 453.688 17.4007 453.688 17.458C453.746 17.5153 453.774 17.6013 453.774 17.716H450.162C450.277 17.9453 450.334 18.1747 450.334 18.404C450.392 18.576 450.449 18.7767 450.506 19.006H454.978C455.036 19.2353 455.064 19.4647 455.064 19.694C455.122 19.866 455.15 20.0667 455.15 20.296H453.946C454.004 20.5253 454.032 20.7547 454.032 20.984C454.09 21.156 454.118 21.3567 454.118 21.586H455.236L455.408 23.306H454.29V23.564C454.29 23.6213 454.29 23.7073 454.29 23.822C454.348 23.9367 454.376 24.0513 454.376 24.166H456.698V24.596H454.634C454.692 24.7107 454.72 24.854 454.72 25.026H456.268C456.326 25.3127 456.354 25.5993 456.354 25.886C456.354 26.1727 456.354 26.4593 456.354 26.746H453.774V28.036ZM434.94 29.756H435.714V28.036H431.414V26.746H433.994C433.994 26.4593 433.994 26.1727 433.994 25.886C433.994 25.5993 433.966 25.3127 433.908 25.026H432.36C432.36 24.9113 432.332 24.8253 432.274 24.768C432.274 24.7107 432.274 24.6533 432.274 24.596H434.338V24.166H432.016C432.016 24.0513 431.988 23.9653 431.93 23.908C431.93 23.8507 431.93 23.7933 431.93 23.736V23.306H432.962C432.962 23.0193 432.934 22.7327 432.876 22.446C432.876 22.102 432.848 21.8153 432.79 21.586H431.672C431.615 21.3567 431.558 21.156 431.5 20.984C431.443 20.7547 431.357 20.5253 431.242 20.296H432.446C432.274 19.8373 432.045 19.4073 431.758 19.006H427.286C427 18.5473 426.541 18.1173 425.91 17.716H429.522C429.178 17.4867 428.92 17.3433 428.748 17.286H429.006C428.146 16.942 427.2 16.77 426.168 16.77C425.136 16.77 424.19 16.942 423.33 17.286H420.836C420.607 17.3433 420.32 17.4867 419.976 17.716H422.384C421.926 18.0027 421.467 18.4327 421.008 19.006H421.18C420.894 19.4073 420.664 19.8373 420.492 20.296H420.75C420.693 20.5253 420.636 20.7547 420.578 20.984C420.521 21.156 420.435 21.3567 420.32 21.586H420.492C420.435 21.8153 420.378 22.102 420.32 22.446C420.32 22.7327 420.32 23.0193 420.32 23.306H420.148V24.166H421.18V24.596H419.804V25.026H416.02V26.746H419.202V28.036H419.804V29.756H419.288V31.476H419.718V32.766H419.804C419.804 32.938 419.833 33.0813 419.89 33.196H418.17V33.626H421.18V34.486H419.46V35.776H419.718V36.206H419.116C419.116 36.4927 419.116 36.7793 419.116 37.066C419.174 37.3527 419.202 37.6393 419.202 37.926H420.406V38.184C420.406 38.4133 420.406 38.6713 420.406 38.958C420.406 39.1873 420.435 39.4167 420.492 39.646H419.89C419.948 39.7607 419.976 39.904 419.976 40.076C419.976 40.248 420.005 40.3913 420.062 40.506H420.578C420.636 40.7927 420.722 41.0793 420.836 41.366C420.951 41.6527 421.066 41.9393 421.18 42.226H420.75C421.094 42.8567 421.553 43.43 422.126 43.946H422.298C422.413 44.0033 422.528 44.0893 422.642 44.204C422.757 44.2613 422.872 44.3187 422.986 44.376H423.76C423.932 44.4333 424.104 44.5193 424.276 44.634C424.448 44.6913 424.62 44.7487 424.792 44.806H423.76C424.448 45.0353 425.251 45.15 426.168 45.15C427.086 45.15 427.888 45.0353 428.576 44.806H430.038C430.21 44.7487 430.382 44.6913 430.554 44.634C430.726 44.5193 430.898 44.4333 431.07 44.376H429.694C429.809 44.3187 429.924 44.2613 430.038 44.204C430.153 44.0893 430.268 44.0033 430.382 43.946H429.436C429.952 43.5447 430.411 42.9713 430.812 42.226H431.586C431.873 41.5953 432.102 41.022 432.274 40.506H431.414C431.472 40.3913 431.5 40.248 431.5 40.076C431.5 39.904 431.529 39.7607 431.586 39.646H432.016C432.074 39.4167 432.102 39.1873 432.102 38.958C432.102 38.6713 432.102 38.4133 432.102 38.184V37.926H432.274C432.274 37.6393 432.274 37.3527 432.274 37.066C432.274 36.7793 432.303 36.4927 432.36 36.206H432.274V35.776H434.768V34.486H430.64V33.626H433.048V33.196H432.36V32.766H434.166V31.476H434.94V29.756Z"/>
  </g>
  <g id="name" fill="currentColor">
    <path d="M537.132 56.416L538.164 58.136H534.38L534.466 58.222C534.524 58.2793 534.552 58.394 534.552 58.566C534.61 58.738 534.667 58.8813 534.724 58.996H534.466V59.168C534.466 59.3973 534.438 59.598 534.38 59.77C534.323 59.942 534.237 60.114 534.122 60.286H535.24C535.126 60.458 534.982 60.6013 534.81 60.716H529.822C529.536 60.9453 529.163 61.06 528.704 61.06H509.096C508.752 61.06 508.437 61.0313 508.15 60.974C507.864 60.8593 507.606 60.7733 507.376 60.716H512.364C512.192 60.6587 511.934 60.5153 511.59 60.286H510.472C510.186 60.0567 509.956 59.8273 509.784 59.598C509.67 59.3687 509.555 59.1967 509.44 59.082L509.354 58.996H509.612L509.182 58.136H512.88L511.934 56.416H519.674L519.416 55.986H512.708L512.622 55.814V55.986H499.206V56.416H508.15V58.136H502.646V58.996H494.304C494.304 59.2253 494.247 59.4547 494.132 59.684C494.018 59.9133 493.903 60.114 493.788 60.286H493.014C492.785 60.5153 492.613 60.6587 492.498 60.716H486.908C486.622 60.9453 486.22 61.06 485.704 61.06H469.278C468.762 61.06 468.361 60.9453 468.074 60.716H473.578C473.464 60.6587 473.292 60.5153 473.062 60.286H473.836C473.722 60.114 473.607 59.9133 473.492 59.684C473.378 59.4547 473.32 59.2253 473.32 58.996H481.576V58.136H487.08V56.416H478.136V55.986H491.552V54.696H475.126V53.406H476.674V51.686H478.05V50.826H477.792V49.106H477.62V47.386H476.932V46.096H477.448V45.236H478.394V43.516H481.49V42.226H470.568V41.366H469.794V40.936H479.598V40.076H480.458V39.646H469.278V38.356H470.74V37.496H471.256V35.776H479.684V34.916H482.006V33.626H471.17V31.906H474.094V30.616H477.878V30.186H483.64V29.326H486.65V28.036H487.252V27.606H485.446V26.316H479.684V25.886H475.642V24.166H491.724V23.306H471.944V22.446H486.822V21.156H472.46V20.296H478.05V19.436H483.382V17.716H481.662V16.426H482.178V15.136H479.684V14.706H477.878V13.416H477.362V12.986H478.48V12.126H479.598V10.406H470.138V9.976H470.654V9.546H474.18V9.116H472.976V8.686H479.598V8.256H477.964V7.826H477.878V6.106H478.308V5.246H484.242V4.386H485.016V3.526H485.36V3.096H476.158C476.216 2.46533 476.502 1.892 477.018 1.376H477.964C478.308 1.032 478.796 0.859999 479.426 0.859999H495.852C496.426 0.859999 496.913 1.032 497.314 1.376H496.368C496.942 1.83467 497.228 2.408 497.228 3.096H506.43V3.526H506.086V4.386H505.312V5.246H499.378V6.106H498.948V7.826H499.034V8.256H500.668V8.686H494.046V9.116H495.25V9.546H491.724V9.976H491.208V10.406H499.292L499.55 9.976H502.302L502.474 9.546H507.462L507.72 9.116H502.732L502.99 8.686H504.452L504.71 8.256H505.14L505.398 7.826H506.172L506.344 7.396H507.29L507.978 6.106H507.548L508.064 5.246H512.966L513.396 4.386H509.44L509.87 3.526H514.17L514.342 3.096H508.494L508.666 2.752C508.953 2.17867 509.383 1.72 509.956 1.376H509.268C509.784 1.032 510.472 0.859999 511.332 0.859999H530.338C530.854 0.859999 531.284 1.032 531.628 1.376H532.402C532.804 1.77733 533.004 2.236 533.004 2.752C533.004 2.924 532.976 3.03867 532.918 3.096H538.852C538.852 3.15333 538.824 3.21067 538.766 3.268C538.766 3.32533 538.766 3.41134 538.766 3.526H534.552L534.38 3.698L534.036 4.386H537.992L537.476 5.246H532.574L532.058 6.106H532.488L531.714 7.396H530.854L530.596 7.826H529.822L529.564 8.256H529.134L528.876 8.686H527.328L527.07 9.116H532.144L531.886 9.546H526.898L526.64 9.976H523.888L523.63 10.406H524.146L523.2 12.126H526.64L526.124 12.986H526.898L526.64 13.416H526.726L525.952 14.706H527.156L526.898 15.136H526.984L526.21 16.426H524.49L523.716 17.716H525.522L524.49 19.436H523.544L523.028 20.296H517.438L516.922 21.156H531.284L530.51 22.446H515.632L515.116 23.306H534.896L534.38 24.166H518.298L517.266 25.886H521.308L521.05 26.316H526.812L526.038 27.606H527.844L527.586 28.036H526.984L526.21 29.326H523.2L523.028 29.67L523.372 30.186H517.61L517.868 30.616H514.084L514.858 31.906H511.848L512.88 33.626H523.716L524.49 34.916H522.168L522.684 35.776H514.256L515.288 37.496H514.772L515.288 38.356H513.826L514.6 39.646H525.78L526.038 40.076H525.092L525.608 40.936H523.2L523.458 41.366H522.598L523.114 42.226H516.75L517.524 43.516H524.92L525.952 45.236H525.78L526.296 46.096H526.984L527.758 47.386H529.306L530.338 49.106H528.79L529.822 50.826H529.908L530.338 51.686H530.51L531.542 53.406H532.058L532.832 54.696H537.132L537.906 55.986H544.614L544.872 56.416H537.132ZM498.948 14.706H500.754V15.136H502.732L502.99 14.706H501.786L502.474 13.416H502.388L502.646 12.986H501.872L502.302 12.126H499.55V12.986H498.432V13.416H498.948V14.706ZM499.55 19.436H499.12V20.21L499.55 19.436ZM500.668 40.936H500.926L500.668 40.334V40.936ZM490.864 41.366H491.638V42.226H498.432L497.916 41.366H498.776L498.518 40.936H490.864V41.366ZM496.196 54.696H507.72L507.032 53.406H506.43L505.484 51.686H505.312L504.882 50.826H504.796L503.85 49.106H505.398L504.452 47.386H502.904L502.13 46.096H501.442L501.012 45.236H501.184L500.152 43.516H499.464V45.236H498.518V46.096H498.002V47.386H498.69V49.106H498.862V50.826H499.12V51.686H497.744V53.406H496.196V54.696Z"/>
    <path d="M591.197 28.036H595.497V29.756H594.723V31.476H593.949V32.766H592.143V33.196H592.831V33.626H590.423V34.486H594.551V35.776H592.057V36.206H592.143C592.143 36.4927 592.115 36.7793 592.057 37.066C592.057 37.3527 592.057 37.6393 592.057 37.926H591.971C591.914 38.098 591.885 38.356 591.885 38.7V39.646H591.455C591.398 39.7607 591.369 39.904 591.369 40.076C591.369 40.248 591.369 40.3913 591.369 40.506H592.229L591.971 42.226H591.197C591.14 42.5127 591.083 42.7993 591.025 43.086C591.025 43.3727 590.968 43.6593 590.853 43.946H591.799C591.799 44.0033 591.771 44.0607 591.713 44.118C591.713 44.1753 591.713 44.2613 591.713 44.376H593.003C593.003 44.4333 592.975 44.4907 592.917 44.548C592.917 44.6053 592.917 44.6913 592.917 44.806H591.369C591.312 45.0353 591.255 45.2647 591.197 45.494C591.14 45.666 591.083 45.8667 591.025 46.096H590.767L590.251 47.386H589.305C589.248 47.6153 589.162 47.8447 589.047 48.074C588.933 48.246 588.818 48.4467 588.703 48.676H589.477C589.363 48.9627 589.219 49.2493 589.047 49.536H588.531C588.474 49.7653 588.359 49.9947 588.187 50.224C588.073 50.396 587.958 50.5967 587.843 50.826H590.509L589.907 51.686H586.725L585.779 52.976H586.725L585.521 54.266H586.467C586.41 54.3233 586.324 54.3807 586.209 54.438C586.152 54.4953 586.095 54.5813 586.037 54.696H587.069C586.897 54.8107 586.725 54.954 586.553 55.126C586.439 55.298 586.295 55.4413 586.123 55.556H584.489C584.317 55.6707 584.145 55.814 583.973 55.986C583.801 56.158 583.601 56.3013 583.371 56.416H583.973C583.801 56.5307 583.601 56.674 583.371 56.846C583.199 57.018 582.999 57.1613 582.769 57.276H582.597C582.081 57.5627 581.565 57.8493 581.049 58.136C580.533 58.4227 579.989 58.7093 579.415 58.996H579.157C578.985 59.0533 578.813 59.1107 578.641 59.168C578.469 59.2253 578.297 59.3113 578.125 59.426C577.724 59.598 577.323 59.77 576.921 59.942C576.577 60.0567 576.176 60.1713 575.717 60.286H575.631C573.739 60.8593 571.675 61.2893 569.439 61.576H569.525C568.608 61.6907 567.633 61.7767 566.601 61.834C565.627 61.8913 564.652 61.92 563.677 61.92C562.645 61.92 561.642 61.8913 560.667 61.834C559.693 61.7767 558.718 61.6907 557.743 61.576C555.565 61.3467 553.472 60.9167 551.465 60.286H551.551C551.15 60.1713 550.749 60.0567 550.347 59.942C549.946 59.77 549.545 59.598 549.143 59.426H549.057C548.885 59.3113 548.713 59.2253 548.541 59.168C548.369 59.1107 548.197 59.0533 548.025 58.996H548.283C547.71 58.7093 547.165 58.4227 546.649 58.136C546.133 57.8493 545.617 57.5627 545.101 57.276H545.273L543.983 56.416H543.467C543.238 56.3013 543.037 56.158 542.865 55.986C542.693 55.814 542.521 55.6707 542.349 55.556H543.983L542.951 54.696H541.919C541.862 54.5813 541.805 54.4953 541.747 54.438C541.69 54.3807 541.604 54.3233 541.489 54.266H540.629C540.4 54.0367 540.171 53.836 539.941 53.664C539.769 53.4347 539.597 53.2053 539.425 52.976H538.479L537.447 51.686H540.629L540.113 50.826H537.361C537.247 50.5967 537.132 50.396 537.017 50.224C536.903 49.9947 536.788 49.7653 536.673 49.536H537.189C537.017 49.2493 536.874 48.9627 536.759 48.676H535.985C535.871 48.4467 535.756 48.246 535.641 48.074C535.584 47.8447 535.498 47.6153 535.383 47.386H536.415L535.899 46.096H536.157C536.1 45.8667 536.043 45.666 535.985 45.494C535.928 45.2647 535.871 45.0353 535.813 44.806H536.759C536.702 44.6913 536.673 44.548 536.673 44.376H535.813C535.813 44.2613 535.785 44.1753 535.727 44.118C535.727 44.0607 535.727 44.0033 535.727 43.946H535.555C535.498 43.6593 535.441 43.3727 535.383 43.086C535.326 42.7993 535.269 42.5127 535.211 42.226H535.641C535.584 41.9393 535.527 41.6527 535.469 41.366C535.469 41.0793 535.469 40.7927 535.469 40.506H534.953L534.867 39.646H535.469V38.7C535.469 38.5853 535.441 38.4707 535.383 38.356C535.383 38.184 535.383 38.0407 535.383 37.926H534.265C534.208 37.6393 534.179 37.3527 534.179 37.066C534.179 36.7793 534.179 36.4927 534.179 36.206H534.781V35.776H534.523V34.486H536.243V33.626H533.233V33.196H534.867V32.766H534.781V31.476H534.351V29.756H534.867V28.036H534.265V26.746H531.083V25.026H534.781C534.839 24.9113 534.867 24.768 534.867 24.596H536.243V24.166H535.211V23.306H535.297L535.469 21.586H535.297C535.297 21.3567 535.297 21.156 535.297 20.984C535.355 20.7547 535.412 20.5253 535.469 20.296H535.211C535.211 20.0667 535.211 19.866 535.211 19.694C535.269 19.4647 535.326 19.2353 535.383 19.006H535.211C535.269 18.7767 535.326 18.576 535.383 18.404C535.441 18.1747 535.498 17.9453 535.555 17.716H533.147C533.147 17.6013 533.147 17.5153 533.147 17.458C533.205 17.4007 533.233 17.3433 533.233 17.286H535.813L536.071 16.426H535.899L536.071 15.996H537.361C537.419 15.8813 537.476 15.738 537.533 15.566C537.591 15.394 537.648 15.2507 537.705 15.136H536.845C537.017 14.62 537.247 14.0467 537.533 13.416H537.275C537.447 13.1293 537.591 12.8427 537.705 12.556C537.877 12.212 538.049 11.9253 538.221 11.696H538.479L538.737 11.266H537.361L537.619 10.836H538.995L539.253 10.406H539.081L540.113 9.116H539.511L540.629 7.826C540.916 7.53934 541.203 7.25267 541.489 6.966C541.833 6.622 542.177 6.33533 542.521 6.106H541.661L542.177 5.676H541.231C541.346 5.56133 541.432 5.47533 541.489 5.418C541.604 5.36067 541.719 5.30334 541.833 5.246H543.983C544.213 5.13133 544.442 4.988 544.671 4.816C544.901 4.644 545.13 4.50067 545.359 4.386H545.617C546.191 4.09933 546.764 3.81267 547.337 3.526C547.911 3.182 548.484 2.89534 549.057 2.666H549.315C550.462 2.15 551.723 1.72 553.099 1.376H553.529C555.192 0.917335 556.941 0.573335 558.775 0.344001C560.61 0.114667 562.502 0 564.451 0C568.522 0 572.134 0.458668 575.287 1.376H574.771C575.402 1.548 576.033 1.74867 576.663 1.978C577.294 2.15 577.896 2.37934 578.469 2.666H578.125C578.756 2.89534 579.329 3.182 579.845 3.526C580.419 3.81267 580.992 4.09933 581.565 4.386H581.221L582.511 5.246H580.361C580.476 5.30334 580.562 5.36067 580.619 5.418C580.734 5.47533 580.849 5.56133 580.963 5.676H581.909C582.024 5.73333 582.139 5.79067 582.253 5.848C582.368 5.90533 582.454 5.99133 582.511 6.106H583.371C583.715 6.33533 584.031 6.622 584.317 6.966C584.661 7.25267 584.977 7.53934 585.263 7.826H585.349C585.579 8.05534 585.779 8.28467 585.951 8.514C586.123 8.686 586.295 8.88667 586.467 9.116H587.069L588.101 10.406H588.273C588.445 10.578 588.56 10.7213 588.617 10.836H587.241L587.499 11.266H588.961L589.219 11.696H588.961C589.133 11.9253 589.277 12.212 589.391 12.556C589.563 12.8427 589.735 13.1293 589.907 13.416H590.165L590.939 15.136H591.799L592.057 15.996H590.767L590.939 16.426H591.111L591.369 17.286H591.111C591.111 17.3433 591.111 17.4007 591.111 17.458C591.169 17.5153 591.197 17.6013 591.197 17.716H587.585C587.7 17.9453 587.757 18.1747 587.757 18.404C587.815 18.576 587.872 18.7767 587.929 19.006H592.401C592.459 19.2353 592.487 19.4647 592.487 19.694C592.545 19.866 592.573 20.0667 592.573 20.296H591.369C591.427 20.5253 591.455 20.7547 591.455 20.984C591.513 21.156 591.541 21.3567 591.541 21.586H592.659L592.831 23.306H591.713V23.564C591.713 23.6213 591.713 23.7073 591.713 23.822C591.771 23.9367 591.799 24.0513 591.799 24.166H594.121V24.596H592.057C592.115 24.7107 592.143 24.854 592.143 25.026H593.691C593.749 25.3127 593.777 25.5993 593.777 25.886C593.777 26.1727 593.777 26.4593 593.777 26.746H591.197V28.036ZM572.363 29.756H573.137V28.036H568.837V26.746H571.417C571.417 26.4593 571.417 26.1727 571.417 25.886C571.417 25.5993 571.389 25.3127 571.331 25.026H569.783C569.783 24.9113 569.755 24.8253 569.697 24.768C569.697 24.7107 569.697 24.6533 569.697 24.596H571.761V24.166H569.439C569.439 24.0513 569.411 23.9653 569.353 23.908C569.353 23.8507 569.353 23.7933 569.353 23.736V23.306H570.385C570.385 23.0193 570.357 22.7327 570.299 22.446C570.299 22.102 570.271 21.8153 570.213 21.586H569.095C569.038 21.3567 568.981 21.156 568.923 20.984C568.866 20.7547 568.78 20.5253 568.665 20.296H569.869C569.697 19.8373 569.468 19.4073 569.181 19.006H564.709C564.423 18.5473 563.964 18.1173 563.333 17.716H566.945C566.601 17.4867 566.343 17.3433 566.171 17.286H566.429C565.569 16.942 564.623 16.77 563.591 16.77C562.559 16.77 561.613 16.942 560.753 17.286H558.259C558.03 17.3433 557.743 17.4867 557.399 17.716H559.807C559.349 18.0027 558.89 18.4327 558.431 19.006H558.603C558.317 19.4073 558.087 19.8373 557.915 20.296H558.173C558.116 20.5253 558.059 20.7547 558.001 20.984C557.944 21.156 557.858 21.3567 557.743 21.586H557.915C557.858 21.8153 557.801 22.102 557.743 22.446C557.743 22.7327 557.743 23.0193 557.743 23.306H557.571V24.166H558.603V24.596H557.227V25.026H553.443V26.746H556.625V28.036H557.227V29.756H556.711V31.476H557.141V32.766H557.227C557.227 32.938 557.256 33.0813 557.313 33.196H555.593V33.626H558.603V34.486H556.883V35.776H557.141V36.206H556.539C556.539 36.4927 556.539 36.7793 556.539 37.066C556.597 37.3527 556.625 37.6393 556.625 37.926H557.829V38.184C557.829 38.4133 557.829 38.6713 557.829 38.958C557.829 39.1873 557.858 39.4167 557.915 39.646H557.313C557.371 39.7607 557.399 39.904 557.399 40.076C557.399 40.248 557.428 40.3913 557.485 40.506H558.001C558.059 40.7927 558.145 41.0793 558.259 41.366C558.374 41.6527 558.489 41.9393 558.603 42.226H558.173C558.517 42.8567 558.976 43.43 559.549 43.946H559.721C559.836 44.0033 559.951 44.0893 560.065 44.204C560.18 44.2613 560.295 44.3187 560.409 44.376H561.183C561.355 44.4333 561.527 44.5193 561.699 44.634C561.871 44.6913 562.043 44.7487 562.215 44.806H561.183C561.871 45.0353 562.674 45.15 563.591 45.15C564.509 45.15 565.311 45.0353 565.999 44.806H567.461C567.633 44.7487 567.805 44.6913 567.977 44.634C568.149 44.5193 568.321 44.4333 568.493 44.376H567.117C567.232 44.3187 567.347 44.2613 567.461 44.204C567.576 44.0893 567.691 44.0033 567.805 43.946H566.859C567.375 43.5447 567.834 42.9713 568.235 42.226H569.009C569.296 41.5953 569.525 41.022 569.697 40.506H568.837C568.895 40.3913 568.923 40.248 568.923 40.076C568.923 39.904 568.952 39.7607 569.009 39.646H569.439C569.497 39.4167 569.525 39.1873 569.525 38.958C569.525 38.6713 569.525 38.4133 569.525 38.184V37.926H569.697C569.697 37.6393 569.697 37.3527 569.697 37.066C569.697 36.7793 569.726 36.4927 569.783 36.206H569.697V35.776H572.191V34.486H568.063V33.626H570.471V33.196H569.783V32.766H571.589V31.476H572.363V29.756Z"/>
    <path d="M653.305 52.546H649.779L649.005 53.406H662.163C662.106 53.4633 662.049 53.5207 661.991 53.578C661.934 53.6353 661.848 53.7213 661.733 53.836H641.437C641.151 54.1227 640.835 54.4093 640.491 54.696C640.205 54.9827 639.889 55.2693 639.545 55.556H645.823L644.705 56.416H656.401L655.713 56.846H650.639C650.582 56.9033 650.467 56.9607 650.295 57.018C650.181 57.0753 650.066 57.1613 649.951 57.276H644.189L641.781 58.566H645.135C644.39 58.91 643.645 59.2253 642.899 59.512C642.154 59.7413 641.38 59.9993 640.577 60.286H637.481C635.532 60.8593 633.411 61.2893 631.117 61.576H631.547C630.63 61.6907 629.684 61.7767 628.709 61.834C627.735 61.8913 626.76 61.92 625.785 61.92C624.696 61.92 623.607 61.8913 622.517 61.834C621.485 61.7767 620.482 61.6907 619.507 61.576H619.163C616.698 61.2893 614.491 60.8593 612.541 60.286H615.637C614.777 59.9993 613.975 59.7413 613.229 59.512C612.484 59.2253 611.739 58.91 610.993 58.566H607.639C607.238 58.3367 606.837 58.136 606.435 57.964C606.034 57.7347 605.633 57.5053 605.231 57.276H611.079L610.391 56.846H615.465C615.408 56.7313 615.322 56.6453 615.207 56.588C615.093 56.5307 614.978 56.4733 614.863 56.416H603.167C602.938 56.3013 602.737 56.158 602.565 55.986C602.393 55.814 602.221 55.6707 602.049 55.556H595.685C595.399 55.2693 595.112 54.9827 594.825 54.696C594.481 54.4093 594.166 54.1227 593.879 53.836H614.175C614.118 53.7213 614.061 53.6353 614.003 53.578C613.946 53.5207 613.889 53.4633 613.831 53.406H600.673C600.444 53.1767 600.215 52.89 599.985 52.546H603.511C603.454 52.4313 603.397 52.3453 603.339 52.288C603.282 52.2307 603.225 52.1733 603.167 52.116H613.917L613.143 50.826H607.811L607.553 50.396H595.427C595.37 50.1667 595.284 49.966 595.169 49.794C595.055 49.5647 594.94 49.3353 594.825 49.106H600.587L600.071 47.816H598.007L597.835 47.386H598.781C598.724 47.1567 598.667 46.956 598.609 46.784C598.552 46.5547 598.495 46.3253 598.437 46.096H597.749C597.749 45.8667 597.721 45.666 597.663 45.494C597.663 45.2647 597.635 45.0353 597.577 44.806H596.889C596.889 44.5767 596.861 44.376 596.803 44.204C596.803 44.032 596.803 43.8313 596.803 43.602V43.516H596.717C596.717 43.4013 596.717 43.3153 596.717 43.258C596.775 43.2007 596.803 43.1433 596.803 43.086H598.781C599.068 42.1687 599.67 41.71 600.587 41.71H616.927C617.845 41.71 618.533 41.8247 618.991 42.054C619.45 42.2833 619.966 42.6273 620.539 43.086H618.561L618.647 43.172C618.762 43.2293 618.848 43.2867 618.905 43.344C619.02 43.4013 619.106 43.4587 619.163 43.516H619.249C619.995 44.0893 620.912 44.5193 622.001 44.806H622.775C623.521 45.0353 624.524 45.15 625.785 45.15C626.531 45.15 627.219 45.1213 627.849 45.064C628.48 45.0067 629.025 44.9207 629.483 44.806H629.225C630.544 44.5193 631.375 44.0893 631.719 43.516H631.547C631.662 43.2867 631.719 43.1433 631.719 43.086H632.579L632.665 42.742C632.665 42.226 632.465 41.7673 632.063 41.366H631.375C630.859 40.85 629.942 40.42 628.623 40.076H628.365C627.849 39.904 627.247 39.7607 626.559 39.646C625.871 39.474 625.069 39.3307 624.151 39.216H623.635L620.109 38.7C619.708 38.6427 619.307 38.5853 618.905 38.528C618.561 38.4707 618.189 38.4133 617.787 38.356C615.437 37.9547 613.172 37.3813 610.993 36.636H609.445C608.643 36.3493 607.897 36.0627 607.209 35.776H606.005C605.719 35.6613 605.432 35.5467 605.145 35.432C604.859 35.26 604.572 35.088 604.285 34.916H596.803C596.402 34.6867 596.029 34.486 595.685 34.314C595.341 34.0847 594.997 33.8553 594.653 33.626H610.649C610.363 33.3967 610.076 33.196 609.789 33.024C609.56 32.7947 609.302 32.5653 609.015 32.336H591.901C591.729 32.2213 591.586 32.078 591.471 31.906C591.299 31.734 591.156 31.5907 591.041 31.476H595.513C594.997 30.9027 594.51 30.3293 594.051 29.756H595.341L594.825 28.896H586.569C586.512 28.7813 586.455 28.6953 586.397 28.638C586.34 28.5807 586.311 28.5233 586.311 28.466H605.919C605.805 28.2367 605.69 28.036 605.575 27.864C605.461 27.6347 605.346 27.4053 605.231 27.176H590.181L589.665 25.886H601.791L601.619 25.456H598.007L597.835 25.026H599.555C599.555 24.9113 599.527 24.8253 599.469 24.768C599.469 24.7107 599.469 24.6533 599.469 24.596H599.125L598.867 23.736H598.351L598.265 22.876H598.093V22.446H595.341C595.284 22.3313 595.255 22.188 595.255 22.016C595.255 21.844 595.255 21.7007 595.255 21.586H592.761L592.675 20.726H602.479C602.422 20.6113 602.393 20.468 602.393 20.296C602.393 20.124 602.393 19.9807 602.393 19.866H603.769V19.78C603.769 19.4933 603.769 19.2067 603.769 18.92C603.769 18.6333 603.798 18.3753 603.855 18.146H600.157C600.215 17.9167 600.243 17.716 600.243 17.544C600.243 17.3147 600.272 17.0853 600.329 16.856H606.349C606.349 16.7413 606.349 16.6553 606.349 16.598C606.407 16.5407 606.435 16.4833 606.435 16.426H600.329C600.444 16.082 600.501 15.7953 600.501 15.566H599.555L599.813 14.706H598.351C598.523 14.0753 598.724 13.502 598.953 12.986H599.641L599.985 12.126H600.931L601.705 10.836H600.845C601.017 10.6067 601.161 10.406 601.275 10.234C601.447 10.0047 601.591 9.77533 601.705 9.546H601.017L602.049 8.256H603.855C603.913 8.14133 603.97 8.05533 604.027 7.998C604.085 7.94067 604.142 7.88333 604.199 7.826H601.791C602.021 7.59667 602.25 7.396 602.479 7.224C602.709 6.99467 602.938 6.76533 603.167 6.536H604.543C604.887 6.24933 605.231 5.96267 605.575 5.676C605.919 5.332 606.292 5.04533 606.693 4.816H608.241C608.585 4.58667 608.929 4.386 609.273 4.214C609.617 3.98467 609.99 3.75533 610.391 3.526H610.133C610.248 3.41134 610.391 3.32533 610.563 3.268C610.735 3.21067 610.879 3.15333 610.993 3.096H609.789C609.904 2.98133 610.047 2.89533 610.219 2.838C610.391 2.78067 610.563 2.72333 610.735 2.666H609.875C610.678 2.322 611.509 2.00666 612.369 1.72C613.287 1.43333 614.204 1.17533 615.121 0.945998H616.411C617.73 0.659332 619.106 0.43 620.539 0.258002C622.03 0.0860006 623.578 0 625.183 0C628.222 0 631.089 0.315333 633.783 0.945998H632.579C634.414 1.34733 636.191 1.92067 637.911 2.666H638.685C638.857 2.72333 639.029 2.78067 639.201 2.838C639.373 2.89533 639.545 2.98133 639.717 3.096H640.921C641.036 3.15333 641.179 3.21067 641.351 3.268C641.523 3.32533 641.667 3.41134 641.781 3.526H642.039C642.441 3.75533 642.813 3.98467 643.157 4.214C643.559 4.386 643.931 4.58667 644.275 4.816H642.813C643.272 5.04533 643.673 5.332 644.017 5.676C644.419 5.96267 644.791 6.24933 645.135 6.536H643.845L645.221 7.826H647.629L648.059 8.256H646.253C646.483 8.48534 646.683 8.71467 646.855 8.944C647.085 9.116 647.285 9.31667 647.457 9.546H648.145L649.177 10.836H649.951L650.725 12.126H649.779C649.951 12.4127 650.095 12.6993 650.209 12.986H649.521C649.693 13.2727 649.837 13.5593 649.951 13.846C650.066 14.1327 650.181 14.4193 650.295 14.706H651.757C651.872 15.05 651.929 15.3367 651.929 15.566H652.961C653.019 15.6807 653.047 15.824 653.047 15.996C653.047 16.168 653.076 16.3113 653.133 16.426H659.239V16.856H653.735C653.793 17.0853 653.821 17.4007 653.821 17.802V18.146H650.639C650.41 19.178 649.837 19.694 648.919 19.694H631.719C630.917 19.694 630.257 19.5793 629.741 19.35C629.283 19.1207 628.795 18.7767 628.279 18.318L628.021 18.146H631.203C630.917 17.9167 630.515 17.6873 629.999 17.458C629.483 17.1713 628.824 16.9707 628.021 16.856H624.925C623.721 17.028 622.89 17.458 622.431 18.146H626.129C625.957 18.49 625.871 18.834 625.871 19.178C625.871 19.4647 625.9 19.694 625.957 19.866H624.667C624.725 20.1527 624.954 20.4393 625.355 20.726H615.637C615.981 21.0127 616.583 21.2993 617.443 21.586H619.937C620.396 21.758 620.941 21.93 621.571 22.102C622.259 22.2167 622.976 22.3313 623.721 22.446H626.473C626.932 22.5033 627.419 22.5607 627.935 22.618C628.451 22.6753 628.996 22.7613 629.569 22.876H629.655C630.63 22.9907 631.576 23.134 632.493 23.306C633.411 23.4207 634.271 23.564 635.073 23.736H635.589C636.277 23.8507 636.908 23.994 637.481 24.166C638.112 24.2807 638.714 24.424 639.287 24.596H639.631C639.918 24.6533 640.176 24.7107 640.405 24.768C640.635 24.8253 640.864 24.9113 641.093 25.026H639.459C639.689 25.0833 639.889 25.1407 640.061 25.198C640.291 25.2553 640.52 25.3413 640.749 25.456H644.361C644.533 25.5133 644.705 25.5707 644.877 25.628C645.107 25.6853 645.307 25.7713 645.479 25.886H633.353C634.5 26.3447 635.417 26.7747 636.105 27.176H651.155C651.499 27.4053 651.843 27.6347 652.187 27.864C652.531 28.036 652.847 28.2367 653.133 28.466H633.525C633.64 28.5233 633.755 28.5807 633.869 28.638C633.984 28.6953 634.07 28.7813 634.127 28.896H642.383C642.555 29.0107 642.727 29.154 642.899 29.326C643.071 29.498 643.215 29.6413 643.329 29.756H642.039C642.613 30.272 643.1 30.8453 643.501 31.476H639.029C639.144 31.5907 639.259 31.734 639.373 31.906C639.488 32.078 639.574 32.2213 639.631 32.336H656.659L657.433 33.626H641.437C641.552 33.8553 641.667 34.0847 641.781 34.314C641.896 34.486 641.982 34.6867 642.039 34.916H649.435L649.693 35.776H650.897L651.155 36.636H652.703C652.818 36.8653 652.875 37.152 652.875 37.496C652.933 37.7827 652.99 38.0693 653.047 38.356L653.133 39.216H653.649C653.707 39.3307 653.735 39.474 653.735 39.646C653.735 39.818 653.735 39.9613 653.735 40.076H653.993V41.366H654.767V41.624C654.767 41.8533 654.739 42.0827 654.681 42.312C654.681 42.5413 654.681 42.7993 654.681 43.086H653.821V43.516H653.993C653.993 43.7453 653.965 43.9747 653.907 44.204C653.907 44.376 653.879 44.5767 653.821 44.806H654.079L653.821 46.096H654.509C654.452 46.3253 654.395 46.5547 654.337 46.784C654.28 46.956 654.194 47.1567 654.079 47.386H653.133C653.133 47.4433 653.105 47.5007 653.047 47.558C653.047 47.6153 653.047 47.7013 653.047 47.816H655.111L654.595 49.106H648.833C648.776 49.3353 648.661 49.5647 648.489 49.794C648.375 49.966 648.26 50.1667 648.145 50.396H660.271L660.013 50.826H665.259C665.145 51.0553 665.001 51.2847 664.829 51.514C664.715 51.686 664.571 51.8867 664.399 52.116H653.649C653.592 52.1733 653.535 52.2307 653.477 52.288C653.42 52.3453 653.363 52.4313 653.305 52.546ZM630.945 16.856H633.525C633.353 16.7987 633.153 16.77 632.923 16.77C632.751 16.77 632.551 16.77 632.321 16.77C632.092 16.77 631.863 16.77 631.633 16.77C631.404 16.77 631.175 16.7987 630.945 16.856Z"/>
    <path d="M716.38 8.686H700.384V10.406H706.49V11.696H713.112V12.986H712.94V14.276H715.434V15.996H706.06V16.426H704.254V17.028C704.254 17.4293 704.168 17.802 703.996 18.146H710.102C709.701 18.9487 709.042 19.35 708.124 19.35H693.848V19.436H694.708V21.156H694.88V22.876H694.45V24.596H693.332V25.886H697.632V26.746H694.02V28.036H692.128V29.756H695.396V30.616H694.794V32.336H694.192V34.056H693.16V35.776H692.214V37.066H695.396V38.356H694.106V40.076H694.622V40.506H695.224V41.366H699.524V42.656H696.6V44.376H697.89V46.096H694.278V47.816H695.74V48.676H696.342V49.966H697.718V51.686H697.202V52.976H694.966V54.266H694.708V55.126H694.622V56.416H695.568V57.706H694.794V58.738C694.794 59.0247 694.766 59.254 694.708 59.426H693.848C693.676 59.9993 693.361 60.4293 692.902 60.716H693.074C692.788 60.9453 692.386 61.06 691.87 61.06H674.67C674.212 61.06 673.782 60.9453 673.38 60.716H673.208C672.807 60.4293 672.492 59.9993 672.262 59.426H673.036C672.979 59.254 672.95 59.0247 672.95 58.738V57.706H673.724V56.416H672.778V55.126H672.864V54.266H673.122V52.976H675.358V51.686H675.874V49.966H674.498V48.676H673.896V47.816H672.434V46.096H676.046V44.376H674.756V42.656H677.68V41.366H673.38V40.506H672.778V40.076H672.262V38.356H673.552V37.066H670.37V35.776H671.316V34.056H672.348V32.336H672.95V30.616H673.552V29.756H670.284V28.036H672.176V26.746H675.788V25.886H671.488V24.596H672.606V22.876H673.036V21.156H672.864V19.436H672.004V19.35H657.728C656.868 19.35 656.18 18.9487 655.664 18.146H649.558C649.501 17.974 649.444 17.802 649.386 17.63C649.272 17.458 649.214 17.2573 649.214 17.028V16.426H651.02V15.996H660.394V14.276H657.9V12.986H658.072V11.696H651.45V10.406H645.344V8.686H661.34V7.396H652.396V5.676H654.116V3.956H656.352V3.526H657.642V3.182C657.642 2.60867 657.814 2.15 658.158 1.806H656.266C656.725 1.17533 657.356 0.859999 658.158 0.859999H708.554C709.357 0.859999 709.988 1.17533 710.446 1.806H712.252C712.539 2.20733 712.682 2.666 712.682 3.182V3.526H711.392V3.956H709.156V5.676H707.436V7.396H716.38V8.686Z"/>
    <path d="M771.836 1.806C772.008 2.03533 772.094 2.322 772.094 2.666H775.104V2.752C775.104 3.03867 775.046 3.29667 774.932 3.526L774.674 3.956H771.492L770.632 5.676H771.32L770.89 6.536H772.266L772.008 6.966H769.256L768.654 8.256H769.17L768.912 8.686H767.88L767.45 9.546H773.212L772.352 11.266H767.278L767.106 11.696H765.988L765.3 12.986H767.708L766.848 14.706H768.654L768.396 15.136H767.794L767.536 15.566H767.02L766.16 17.286H766.246L765.816 18.146H767.106L766.848 18.576H765.988L765.73 19.006H767.622L767.192 19.866H770.374L769.944 20.726H762.032L761.602 21.586H767.02L766.332 22.876H765.214L764.612 24.166H762.462L762.29 24.596H762.806L762.376 25.456H761.86L761.688 25.886H763.494L763.064 26.746H763.924L763.322 28.036H761.688L761.516 28.466H761.086L760.226 30.186H759.968L759.71 30.616H761.86L761.43 31.476H762.806L762.204 32.766H757.044L756.614 33.626H759.538L758.85 34.916H757.646L757.388 35.346L756.7 36.636H758.42L758.162 37.066H761.344L761.172 37.496L760.742 38.356H753.776L753.346 39.216H762.118L761.258 40.936H756.528L756.098 41.796V42.656H753.69V43.516H754.12V45.236H756.356V46.956H746.552V48.676H756.614V49.966H753.174V51.256H754.12V51.686H755.324V53.406H756.012V53.836H753.776V54.696H755.41V56.416H749.218V58.136H747.842V58.996H753.862C753.862 59.7413 753.518 60.3147 752.83 60.716H751.798C751.511 60.9453 751.11 61.06 750.594 61.06H733.738C733.222 61.06 732.82 60.9453 732.534 60.716H733.48C732.906 60.3147 732.562 59.7413 732.448 58.996H726.342V58.136H727.718V56.416H733.91V54.696H732.276V53.836H734.512V53.406H733.824V51.686H732.62V51.256H731.674V49.966H735.114V48.676H725.052V46.956H734.856V45.236H732.62V43.516H732.19V42.656H734.598V41.796L734.168 40.936H738.898L738.038 39.216H729.266L728.836 38.356H735.716L735.286 37.496L735.114 37.066H731.932L731.674 36.636H729.954L729.352 35.346H729.438L729.18 34.916H730.384L729.782 33.626H726.858L726.428 32.766H731.588L730.9 31.476H729.524L729.094 30.616H726.944L726.686 30.186H727.03L726.17 28.466H726.514L726.342 28.036H727.89L727.202 26.746H726.342L725.912 25.886H724.106L723.848 25.456H724.364L723.934 24.596H723.418L723.16 24.166H725.31L724.622 22.876H725.74L725.052 21.586H719.634L719.204 20.726H727.116L726.686 19.866H718.774L718.344 19.006H720.064L719.892 18.576H723.848L723.676 18.146H724.106L723.676 17.286H720.666L719.806 15.566H720.236L719.978 15.136H719.29L719.032 14.706H718.946L718.086 12.986H716.108L715.42 11.696H716.452L716.28 11.266H708.884L708.024 9.546H710.002L709.572 8.686H714.818L714.646 8.256H716.796L716.108 6.966H712.582L712.41 6.536H717.14L716.71 5.676H711.636L710.69 3.956H713.528L713.27 3.526C713.155 3.29667 713.098 3.03867 713.098 2.752V2.666H715.42C715.42 2.494 715.448 2.35067 715.506 2.236C715.563 2.064 715.62 1.92067 715.678 1.806H717.226C717.57 1.17533 718.114 0.859999 718.86 0.859999H735.028C735.658 0.859999 736.174 0.946 736.576 1.118C737.034 1.29 737.407 1.51934 737.694 1.806H736.146C736.318 1.92067 736.461 2.064 736.576 2.236C736.748 2.408 736.862 2.55133 736.92 2.666H734.598C734.712 2.89534 734.77 3.01 734.77 3.01L735.2 3.956H732.448L733.308 5.676H738.468L738.898 6.536H734.082L734.34 6.966H737.866L738.468 8.256H736.318L736.576 8.686H731.33L731.76 9.546H729.696L730.556 11.266H737.952L738.21 11.696H737.092L737.78 12.986H739.758L740.618 14.706H740.704L740.962 15.136H741.65L741.822 15.566H741.392L742.252 17.286H744.488L745.348 15.566H745.864L746.122 15.136H746.81L746.982 14.706H745.176L746.036 12.986H743.628L744.23 11.696H745.434L745.606 11.266H750.68L751.54 9.546H745.692L746.122 8.686H747.24L747.412 8.256H746.896L747.498 6.966H750.25L750.508 6.536H749.132L749.562 5.676H748.874L749.734 3.956H752.916L753.432 3.01C753.432 3.01 753.489 2.89534 753.604 2.666H750.594C750.708 2.55133 750.823 2.408 750.938 2.236C751.052 2.064 751.196 1.92067 751.368 1.806H755.754C756.04 1.51934 756.413 1.29 756.872 1.118C757.33 0.946 757.846 0.859999 758.42 0.859999H774.588C775.333 0.859999 775.878 1.17533 776.222 1.806H771.836ZM745.606 19.866L746.036 19.006H744.144L744.316 18.576H741.478L741.736 19.006H739.93L740.36 19.866H745.606Z"/>
    <path d="M832.3 56.416L832.902 58.136H831.44L831.612 58.566C831.612 58.6233 831.612 58.7093 831.612 58.824C831.669 58.8813 831.698 58.9387 831.698 58.996H831.182V59.168C831.182 59.856 830.924 60.372 830.408 60.716H830.494C830.207 60.9453 829.834 61.06 829.376 61.06H813.466C813.064 61.06 812.72 61.0313 812.434 60.974C812.204 60.8593 811.946 60.7733 811.66 60.716C811.201 60.4867 810.857 60.2287 810.628 59.942C810.398 59.598 810.226 59.2827 810.112 58.996H810.542V58.91L810.37 58.566L810.198 58.136H811.66L811.058 56.416H809.424L809.166 55.556H812.692L812.09 53.836H811.058L810.8 53.234H792.31L792.138 53.836H791.106L790.504 55.556H789.558L789.214 56.416H788.698L788.096 58.136H788.182L788.01 58.566L787.924 58.91L787.838 58.996H787.408C787.293 59.2827 787.121 59.598 786.892 59.942C786.662 60.2287 786.318 60.4867 785.86 60.716H788.44C788.21 60.7733 787.952 60.8593 787.666 60.974C787.379 61.0313 787.035 61.06 786.634 61.06H770.724C770.265 61.06 769.921 60.9453 769.692 60.716H767.112C766.538 60.3147 766.252 59.7987 766.252 59.168V58.996H766.768C766.768 58.824 766.796 58.6807 766.854 58.566L766.94 58.136H766.854L767.456 56.416H767.972L768.316 55.556H769.262L769.864 53.836H770.81L771.412 52.116H768.058L768.402 51.256H768.144L768.574 49.966H769.434L769.606 49.536H767.714L768.316 47.816H771.24L771.498 46.956H768.832L769.004 46.526H769.434L770.036 44.806H769.778L770.208 43.516H770.552L771.154 41.796H772.272L772.702 40.506L772.874 40.076H777.174L777.346 39.646H777.088L777.518 38.356H772.702L773.304 36.636H774.852L775.024 36.206H774.078L774.25 35.776H777.002L777.604 34.056H774.25L774.594 33.196H775.884L776.486 31.476H775.712L776.142 30.186H777.088L777.69 28.466H777.432L777.604 28.036H775.626L775.97 27.176H777.862L778.292 25.886H777.432L777.518 25.456H779.066L779.668 23.736H777.776L778.206 22.446H777.26L777.518 21.586H771.584L771.842 20.726H770.724L771.326 19.006H770.208L770.724 17.716H774.078L774.68 15.996H783.28L783.71 14.706H779.582L779.926 13.846H783.108L783.71 12.126H780.872L781.302 10.836H783.108L783.71 9.116H783.452L784.054 7.396H781.646L781.732 6.966H789.988L790.59 5.246H790.332L790.504 4.816H787.494L787.838 3.698L788.096 3.096H788.956L789.472 2.236H789.214C789.5 1.83467 789.902 1.51933 790.418 1.29C790.934 1.00333 791.564 0.859999 792.31 0.859999H810.972C811.717 0.859999 812.348 1.00333 812.864 1.29C813.38 1.51933 813.781 1.83467 814.068 2.236H814.412L814.928 3.096H814.068C814.182 3.32533 814.24 3.526 814.24 3.698L814.67 4.816H817.68L817.766 5.246H818.024L818.626 6.966H810.456L810.628 7.396H813.036L813.638 9.116H813.896L814.498 10.836H812.692L813.122 12.126H815.96L816.562 13.846H813.38L813.724 14.706H817.852L818.282 15.996H809.682L810.284 17.716H806.93L807.36 19.006H808.392L808.994 20.726H805.64L805.984 21.586H819.658L819.916 22.446H819.228L819.658 23.736H817.938L818.54 25.456H816.476L816.562 25.886H819.658L820.088 27.176H820.174L820.518 28.036H817.68L817.852 28.466H820.604L821.206 30.186H822.152L822.582 31.476H822.324L822.926 33.196H824.302L824.646 34.056H822.152L822.754 35.776H824.474L824.56 36.206H824.13L824.302 36.636H822.754L823.27 38.356H828.172L828.602 39.646H828.86L829.032 40.076H824.646L824.818 40.506H824.904L825.334 41.796H824.216L824.818 43.516H824.388L824.904 44.806H825.162L825.764 46.526H825.334L825.506 46.956H828.172L828.516 47.816H825.506L826.108 49.536H828L828.172 49.966H827.312L827.828 51.256H828L828.344 52.116H831.698L832.3 53.836H833.332L833.934 55.556H830.408L830.666 56.416H832.3ZM796.352 22.446H797.384L796.954 23.736H800.48L800.05 22.446H800.738L800.48 21.586H796.61L796.352 22.446ZM799.19 25.456L798.76 23.994L798.33 25.456H799.19ZM794.03 35.776L793.858 36.206H794.804L794.718 36.464H804.436L804.35 36.206H804.78L804.694 35.776H802.974L802.458 34.056H804.952L804.694 33.196H803.232L802.716 31.476H802.974L802.63 30.186H801.684L801.168 28.466H798.416L798.244 28.036H801.082L800.824 27.176H800.738L800.308 25.886H797.556L797.212 27.176H795.32L795.062 28.036H796.954L796.868 28.466H797.126L796.61 30.186H795.664L795.234 31.476H796.008L795.492 33.196H794.202L793.944 34.056H797.298L796.782 35.776H794.03Z"/>
  </g>
</svg>
