<svg width="448" height="445" viewBox="0 0 448 445" fill="none" xmlns="http://www.w3.org/2000/svg">
<path d="M442.973 173.499L441.756 164.528L368.261 147.37L406.225 91.0325L401.739 84.9248L342.538 113.892L349.076 35.1002L342.538 31.8563L305.79 95.1128L262.529 0H254.369L264.962 93.0853L156.773 6.94402L147.396 9.4023L230.673 113.892L65.3346 58.7961L57.5796 67.362L205.355 151.045L2.05279 168.202L0 180.443L211.488 203.303L34.7201 347.834L42.8806 358.859L252.316 244.536L211.083 445H223.729L304.574 256.396L353.562 403.767L362.128 397.228L343.754 249.452L418.466 333.946L422.977 325.38L367.45 220.865L446.242 248.641L447.053 240.05L381.338 187.387L442.973 173.499Z" fill="currentColor"/>
</svg>
